<svg width="400" height="400" viewBox="0 0 400 400" xmlns="http://www.w3.org/2000/svg">
  <defs>
    <linearGradient id="bgGrad" x1="0%" y1="0%" x2="100%" y2="100%">
      <stop offset="0%" stop-color="#332C81"/>
      <stop offset="100%" stop-color="#1C1652"/>
    </linearGradient>

    <linearGradient id="billBack" x1="0%" y1="0%" x2="100%" y2="0%">
      <stop offset="0%" stop-color="#38B27A"/>
      <stop offset="100%" stop-color="#2A9D63"/>
    </linearGradient>
    <linearGradient id="billFront" x1="0%" y1="0%" x2="100%" y2="0%">
      <stop offset="0%" stop-color="#5EE0A0"/>
      <stop offset="100%" stop-color="#3ECB86"/>
    </linearGradient>

    <linearGradient id="coinGrad" x1="0%" y1="0%" x2="0%" y2="100%">
      <stop offset="0%" stop-color="#FFE58A"/>
      <stop offset="100%" stop-color="#FFB930"/>
    </linearGradient>
    <linearGradient id="coinEdge" x1="0%" y1="0%" x2="0%" y2="100%">
      <stop offset="0%" stop-color="#E8971A"/>
      <stop offset="100%" stop-color="#C9770A"/>
    </linearGradient>

    <linearGradient id="calcBody" x1="0%" y1="0%" x2="0%" y2="100%">
      <stop offset="0%" stop-color="#4C5AF0"/>
      <stop offset="100%" stop-color="#2E2FB8"/>
    </linearGradient>
    <linearGradient id="calcScreen" x1="0%" y1="0%" x2="0%" y2="100%">
      <stop offset="0%" stop-color="#B7F5D8"/>
      <stop offset="100%" stop-color="#7EE6B5"/>
    </linearGradient>

    <filter name="softShadow" id="softShadow" x="-60%" y="-60%" width="220%" height="220%">
      <feDropShadow dx="0" dy="6" stdDeviation="7" flood-color="#000000" flood-opacity="0.28"/>
    </filter>
  </defs>

  <!-- Circular background -->
  <circle cx="200" cy="200" r="190" fill="url(#bgGrad)"/>

  <!-- Bills stack (back left) -->
  <g filter="url(#softShadow)">
    <rect x="62" y="222" width="118" height="52" rx="9" fill="url(#billBack)"/>
    <rect x="56" y="208" width="118" height="52" rx="9" fill="url(#billFront)"/>
    <circle cx="100" cy="234" r="14" fill="#FFFFFF" opacity="0.3"/>
    <text x="100" y="

>
    <line x1="128" y1="230" x2="146" y2="230" stroke="#FFFFFF" stroke-width="3" opacity="0.4"/>
  </g>

  <!-- Coin stack (front left, overlapping bills) -->
  <g filter="url(#softShadow)">
    <ellipse cx="110" cy="308" rx="40" ry="13" fill="url(#coinEdge)"/>
    <ellipse cx="110" cy="298" rx="40" ry="13" fill="url(#coinGrad)"/>
    <ellipse cx="110" cy="286" rx="40" ry="13" fill="url(#coinEdge)"/>
    <ellipse cx="110" cy="276" rx="40" ry="13" fill="url(#coinGrad)"/>
    <text x="110" y="281" font-family="Arial, sans-serif" font-size="15" font-weight="700" fill="#B4720B" text-anchor="middle">$</text>
  </g>

  <!-- Calculator (right side, hero element) -->
  <g filter="url(#softShadow)">
    <rect x="212" y="118" width="130" height="176" rx="18" fill="url(#calcBody)"/>
    <rect x="228" y="136" width="98" height="48" rx="9" fill="url(#calcScreen)"/>
    <text x="317" y="168" font-family="Arial, sans-serif" font-size="20" font-weight="700" fill="#1C6B47" text-anchor="end">482.50</text>

    <!-- Calculator buttons grid -->
    <rect x="228" y="198" width="20" height="20" rx="5" fill="#5D6BFF"/>
    <rect x="256" y="198" width="20" height="20" rx="5" fill="#5D6BFF"/>
    <rect x="284" y="198" width="20" height="20" rx="5" fill="#5D6BFF"/>
    <rect x="312" y="198" width="14" height="20" rx="5" fill="#FFB930"/>

    <rect x="228" y="226" width="20" height="20" rx="5" fill="#5D6BFF"/>
    <rect x="256" y="226" width="20" height="20" rx="5" fill="#5D6BFF"/>
    <rect x="284" y="226" width="20" height="20" rx="5" fill="#5D6BFF"/>
    <rect x="312" y="226" width="14" height="20" rx="5" fill="#FFB930"/>

    <rect x="228" y="254" width="20" height="20" rx="5" fill="#5D6BFF"/>
    <rect x="256" y="254" width="20" height="20" rx="5" fill="#5D6BFF"/>
    <rect x="284" y="254" width="20" height="20" rx="5" fill="#5D6BFF"/>
    <rect x="312" y="254" width="14" height="20" rx="5" fill="#3ECB86"/>
  </g>
</svg>